<?xml version="1.0" encoding="iso-8859-1"?>
<!-- Generator: Adobe Illustrator 19.0.0, SVG Export Plug-In . SVG Version: 6.00 Build 0)  -->
<svg version="1.1" id="Capa_1" xmlns="http://www.w3.org/2000/svg" xmlns:xlink="http://www.w3.org/1999/xlink" x="0px" y="0px"
	 viewBox="0 0 512 512" style="enable-background:new 0 0 512 512;" xml:space="preserve">
<path style="fill:#51CEEF;" d="M425.92,332.08C425.92,425.926,349.846,502,256,502S86.08,425.926,86.08,332.08
	c0-25.608,5.667-49.896,15.813-71.666c0.16-0.34,0.32-0.69,0.49-1.03c15.453-32.605,40.961-59.492,72.536-76.664
	c15.323-8.336,32.075-14.383,49.796-17.682c10.135-1.889,20.6-2.879,31.285-2.879c68.238,0,127.08,40.221,154.107,98.254
	C420.252,282.184,425.92,306.473,425.92,332.08z"/>
<path style="fill:#17CCEF;" d="M402.521,183.361c-3.658,26.478-0.9,52.345,7.097,76.024c-16.202-34.184-43.479-62.101-77.193-79.103
	c0.22-2.169,0.49-4.338,0.79-6.497c3.348-24.209,17.372-60.641,21.59-71.236c0.77-1.929,1.15-3.938,1.15-6.047
	c0-5.208-2.409-10.795-6.127-14.233c-1.759-1.629-3.328-2.399-4.658-2.289c-4.268,0.34-11.245,1.569-18.641,2.879
	c-17.542,3.099-41.57,7.337-70.527,7.337s-52.985-4.238-70.527-7.337c-7.397-1.309-14.373-2.539-18.641-2.879
	c-1.329-0.11-2.899,0.66-4.658,2.289c-3.718,3.438-6.127,9.026-6.127,14.233c0,2.109,0.38,4.118,1.119,5.967
	c4.248,10.675,18.271,47.108,21.62,71.316c0.3,2.159,0.57,4.328,0.8,6.497c-1.569,0.79-3.129,1.599-4.668,2.439
	c-31.575,17.172-57.083,44.059-72.536,76.664c7.996-23.679,10.755-49.547,7.097-76.024c-2.329-16.852-16.262-52.355-17.282-54.914
	c-3.948-9.875-6.117-20.66-6.117-31.945c0-47.647,38.772-90.027,86.269-86.269c21,1.659,47.837,9.995,83.65,9.995
	s62.65-8.336,83.65-9.995c47.498-3.758,86.269,38.622,86.269,86.269c0,11.285-2.169,22.07-6.117,31.945
	C418.783,131.005,404.85,166.509,402.521,183.361z"/>
<path d="M273.5,450.85c-0.45,0-0.899,0.03-1.35,0.09c-2.65,0.36-5,1.721-6.62,3.851c-1.62,2.12-2.311,4.75-1.96,7.399
	c0.67,4.94,4.92,8.66,9.899,8.66c0.44,0,0.891-0.03,1.33-0.09c0,0,0.011,0,0.021,0c5.46-0.729,9.31-5.78,8.57-11.24
	C282.73,454.58,278.469,450.85,273.5,450.85z"/>
<path d="M380.64,370.27c-1.171-0.46-2.4-0.689-3.65-0.689c-4.15,0-7.8,2.489-9.32,6.34c-11.18,28.49-32.6,51.42-60.29,64.57
	c-2.41,1.14-4.229,3.159-5.13,5.68c-0.899,2.51-0.76,5.229,0.391,7.64c1.649,3.471,5.189,5.71,9.04,5.71
	c1.479,0,2.92-0.319,4.279-0.96c15.96-7.58,30.181-17.99,42.28-30.92c12.14-12.979,21.57-27.92,28.05-44.399
	C388.31,378.1,385.77,372.29,380.64,370.27z"/>
<path d="M416.862,249.005c-5.956-20.854-7.452-42.439-4.435-64.276c1.865-13.496,12.662-42.533,16.66-52.57
	c4.533-11.339,6.832-23.335,6.832-35.657c0-24.507-9.482-48.969-26.016-67.113C392.635,10.438,369.768,0,345.515,0
	c-2.204,0-23.568,2.46-32.907,4.109c-16.247,2.867-34.66,6.118-56.607,6.118s-40.361-3.251-56.607-6.118
	C190.054,2.46,168.69,0,166.486,0c-24.252,0-47.118,10.438-64.388,29.39C85.564,47.535,76.081,71.997,76.081,96.502
	c0,12.322,2.299,24.318,6.827,35.645c4.003,10.051,14.802,39.09,16.665,52.583c3.108,22.488,1.429,44.708-4.979,66.137
	c-0.481,1.608-1.765,5.323-1.765,5.323c-11.113,23.847-16.748,49.38-16.748,75.891C76.081,431.288,156.792,512,256,512
	s179.919-80.712,179.919-179.92c0-26.511-5.635-52.044-16.747-75.888C419.138,256.118,417.202,250.195,416.862,249.005z
	 M96.081,96.502C96.081,55.033,128.322,20,166.486,20c1.68,0,3.388,0.067,5.076,0.201c7.139,0.564,15.117,1.973,24.354,3.604
	c16.21,2.861,36.385,6.423,60.084,6.423c23.698,0,43.873-3.562,60.084-6.423c9.237-1.631,17.216-3.039,24.355-3.604
	c1.688-0.134,3.396-0.201,5.075-0.201c38.163,0,70.404,35.033,70.404,76.502c0,9.768-1.817,19.266-5.407,28.244
	c-0.624,1.567-15.32,38.602-17.897,57.246c-1.445,10.458-1.971,20.869-1.583,31.187c-10.784-12.238-23.227-23.034-37.073-32.037
	c-3.523-2.291-7.116-4.448-10.77-6.476c3.313-23.075,16.821-58.157,20.903-68.411c1.235-3.096,1.861-6.377,1.861-9.753
	c0-7.982-3.578-16.25-9.332-21.57c-3.556-3.293-7.324-4.962-11.202-4.962c-0.36,0-4.049,0.34-5.806,0.582
	c-4.268,0.589-9.441,1.505-14.825,2.459c-17.165,3.032-40.673,7.185-68.787,7.185c-28.115,0-51.623-4.152-68.784-7.184
	c-5.358-0.949-10.506-1.861-14.752-2.449c-1.78-0.247-5.523-0.593-5.883-0.593c-3.876,0-7.645,1.669-11.197,4.957
	c-5.759,5.327-9.337,13.594-9.337,21.575c0,3.38,0.617,6.637,1.828,9.664c4.092,10.283,17.622,45.437,20.937,68.5
	c-0.002,0.004-0.003,0.008-0.005,0.013c-18.018,10.003-34.231,23.158-47.84,38.601c0-0.005,0-0.012,0.001-0.017
	c0.394-10.347-0.133-20.783-1.582-31.271c-2.575-18.64-17.272-55.679-17.902-57.259C97.898,115.768,96.081,106.27,96.081,96.502z
	 M324.442,165.647c-21.569-8.874-44.761-13.486-68.441-13.486c-11.125,0-22.268,1.025-33.115,3.047
	c-12.138,2.259-23.956,5.761-35.322,10.44c-4.569-23.88-16.046-54.162-21.112-66.892c-0.269-0.671-0.404-1.429-0.404-2.254
	c0-2.15,0.961-4.667,2.354-6.304c4.007,0.503,9.746,1.519,15.332,2.508c17.894,3.16,42.398,7.489,72.267,7.489
	c29.867,0,54.372-4.329,72.27-7.49c5.577-0.987,11.309-2.002,15.329-2.506c1.393,1.633,2.354,4.151,2.354,6.303
	c0,0.85-0.139,1.593-0.44,2.348C341.559,108.78,329.208,140.887,324.442,165.647z M256,492c-88.18,0-159.92-71.74-159.92-159.92
	c0-23.57,5.005-46.261,14.858-67.402l0.144-0.308c0.08-0.171,0.159-0.344,0.244-0.514l0.092-0.188
	c14.425-30.435,38.673-56.063,68.278-72.163c14.675-7.983,30.438-13.58,46.851-16.635c9.645-1.798,19.555-2.709,29.453-2.709
	c61.946,0,118.879,36.299,145.042,92.478c9.872,21.181,14.877,43.871,14.877,67.441C415.919,420.26,344.18,492,256,492z"/>
<g>
</g>
<g>
</g>
<g>
</g>
<g>
</g>
<g>
</g>
<g>
</g>
<g>
</g>
<g>
</g>
<g>
</g>
<g>
</g>
<g>
</g>
<g>
</g>
<g>
</g>
<g>
</g>
<g>
</g>
</svg>
